<svg width="512" height="512" viewBox="0 0 512 512" fill="none" xmlns="http://www.w3.org/2000/svg">
<rect width="512" height="512" rx="115" fill="#121212"/>
<path d="M273.453 26.8857L284.934 32.3623L300.521 40.998L315.989 49.3604L329.247 56.876L352.449 69.834L374.407 83.8691L395.676 98.3428L416.923 114.196L432.193 127.5L441.94 138.256L449.121 147.067L456.855 158.471L464.036 170.393L470.113 181.797L475.638 194.943L479.914 206L482.939 217L486.975 232.5L488.343 243.998L490 259.548V456H458.5V271.785L454.086 241.229L447.221 219.053L441.5 204L437 193L430.5 180.5L424 170L411.5 156L402.5 147.5L394.5 140L386 132L374 121.5L353 108.5L338 98L319 88.1143L302 77.5L281.5 65.5L257.5 50.5L239 61.5L220.5 71L199.5 82.5L183 91L169 99L156 106L145 113.5L132.815 121.463L119.679 132.778L108.562 143.579L97.9521 155.923L84.8154 175.467L72.6895 195.526L64.3027 211.964L60.0576 227.414L58.0371 238.215L56.0156 253.131L54.5 267.018V456H21V262.734L22.1045 250.218L23.21 241.406L25.9717 229.484L29.8389 215.488L34.2578 200.976L40.335 185.425L41.1953 183.499C45.398 174.095 50.558 165.15 56.5938 156.804L58.0117 154.843L70.165 140.329L82.8701 126.853L98.8906 111.302L114.91 98.3428L130.931 86.9395L146.95 77.6094L160.761 69.834L175.676 61.541L204.401 46.5088L231.47 32.3623L255.525 18L273.453 26.8857Z" fill="#4FA8BE"/>
<path d="M285.5 85L305.5 96.5L318 105L339.5 118L359.5 131L375 144L388 155.5L396.5 164.5L403.5 171.5L409.783 179.5L414.14 187L418 193.5L422.5 201.5L425.419 208.186L431.408 222.291L436.31 233.821L439.576 252.42L443 287.447V456H411.317V268.241L406.891 240.615L400.677 224.034L392.392 203.434L380.332 188.862L369.457 177.307L357.547 165.75L346.672 156.706L334.244 148.164L318.709 137.613L295.27 123.383L277.845 114.92L253.979 101.939L238.442 110.48L222.907 118.52L205 128L193 134.5L176 145.5L164.5 154L151 165.5L145.026 170.173C138.957 174.921 133.263 180.131 127.994 185.754L125.553 188.36L116.749 203.434L106.91 224.034L101.731 240.615L97.5889 258.703L94.4814 281.313V456H64V277.554L66.0215 256.944L69.2891 240.356L75.8232 221.758L86.3721 198.791L95.4268 184.462L112.308 163.95L130.277 148.368L143.347 137.439L161.5 123.5L182 111L209.5 94L257 67L285.5 85Z" fill="#6BC4D8"/>
<path d="M275.185 130.859L289.484 138.271L307.292 148.573L325.1 159.025L343.986 171.378L353.97 179.865L363.952 189.38L373.666 201.195L380.085 209.848L385.128 219.998L389.667 229.134L391.685 234.209L394.711 241.822L397.232 249.942L399.25 261.108V456H370V273.097L368.195 260.814L365.617 249.6L362.008 238.385L353.242 219.16L345.508 209.015L334.68 197.8L326.43 191.061L317.148 183.381L302.195 173.769L284.148 164.034L271.258 156.146L253.727 146L240.836 152.942L222.273 164.034L209.898 171.633L200.102 178.041L188.242 186.052L176.898 194.596L169.164 203.674L161.945 212.752L154.211 223.967L147.508 235.715L141.836 249.6L139 266.824V456H109.25V256.677L114.106 241.266L116.363 234.819C119.885 224.761 124.469 215.106 130.037 206.02L132.993 201.195L142.707 189.661L156.197 176.022L167.529 165.748L177.782 159.025L195.05 148.573L214.477 138.271L251.711 119L275.185 130.859Z" fill="#C8963E"/>
<path d="M176.531 305.715C173.953 310.402 172.02 314.973 170.73 319.426C169.441 323.762 168.797 327.629 168.797 331.027C168.797 337.121 172.137 341.984 178.816 345.617C185.613 349.25 194.754 351.887 206.238 353.527C217.84 355.051 230.73 355.812 244.91 355.812C255.809 355.812 267.645 355.227 280.418 354.055C293.309 352.883 305.32 351.008 316.453 348.43C327.586 345.734 336.082 342.219 341.941 337.883L340.359 340.871C340.359 335.363 337.781 330.676 332.625 326.809C327.586 322.824 322.02 319.426 315.926 316.613L332.449 273.371C338.543 278.996 343.23 285.734 346.512 293.586C349.91 301.438 351.609 311.281 351.609 323.117C351.609 329.094 351.023 336.184 349.852 344.387C348.797 352.59 347.273 359.152 345.281 364.074C342.234 371.926 335.145 378.605 324.012 384.113C312.879 389.504 299.344 393.605 283.406 396.418C267.586 399.23 251.004 400.637 233.66 400.637C218.191 400.637 204.48 398.938 192.527 395.539C180.574 392.023 171.141 386.574 164.227 379.191C157.43 371.691 154.031 361.848 154.031 349.66C154.031 341.809 156.141 333.488 160.359 324.699C164.695 315.793 169.266 309.055 174.07 304.484L176.531 305.715ZM238.582 270.383C246.785 275.891 253.523 282.629 258.797 290.598L238.582 310.637C233.309 303.02 226.629 296.34 218.543 290.598L238.582 270.383ZM271.98 270.383C280.184 275.891 286.922 282.629 292.195 290.598L271.98 310.637C266.707 303.02 260.027 296.34 251.941 290.598L271.98 270.383Z" fill="#C8963E"/>
</svg>
