<svg width="512" height="512" viewBox="0 0 512 512" fill="none" xmlns="http://www.w3.org/2000/svg">
<g clip-path="url(#clip0_9_335)">
<rect width="512" height="512" rx="115" fill="#121212"/>
<path d="M275.073 29.8242L285.99 35.2637L300.813 43.8398L315.523 52.1455L328.131 59.6094L350.194 72.4795L371.076 86.418L391.302 100.793L411.507 116.537L426.028 129.75L435.297 140.432L442.126 149.184L449.48 160.509L456.31 172.349L462.088 183.675L467.342 196.731L471.408 207.712L474.286 218.637L478.123 234.031L479.424 245.449L481 260.894V456H407.857V299.366L404.623 273.219L399.593 254.24L395.401 241.358L392.104 231.945L387.343 221.248L382.58 212.263L373.422 200.282L366.827 193.009L360.966 186.59L354.738 179.744L345.946 170.759L330.561 159.634L319.57 150.648L305.649 142.188L293.193 133.105L278.174 122.836L260.59 110L247.035 119.413L233.48 127.543L218.095 137.384L206.006 144.658L195.748 151.504L186.224 157.494L178.164 163.913L169.237 170.727L159.612 180.41L151.468 189.653L143.693 200.217L134.068 216.941L125.184 234.107L119.04 248.174L115.93 261.396L114.448 270.639L112.968 283.402L111.857 295.286V456H35V264.058L36.0508 251.627L37.1016 242.876L39.7275 231.035L43.4053 217.136L47.6074 202.722L53.3867 187.278L54.2559 185.246C58.2188 175.986 63.1045 167.148 68.8389 158.866L70.1963 156.905L81.7539 142.491L93.8359 129.106L109.07 113.663L124.305 100.793L139.539 89.4678L154.773 80.2012L167.907 72.4795L182.091 64.2422L209.407 49.3135L235.148 35.2637L258.024 21L275.073 29.8242Z" fill="#4FA8BE"/>
<path d="M282.616 115.52L300.188 126.073L311.172 133.874L330.062 145.805L347.635 157.735L361.253 169.666L372.676 180.22L380.144 188.479L386.294 194.903L391.814 202.245L395.643 209.129L399.034 215.094L402.988 222.436L405.553 228.571L410.815 241.516L415.121 252.099L417.992 269.167L421 301.312V456H393.782V284.224L389.884 258.936L384.412 243.759L377.116 224.902L366.497 211.564L356.921 200.987L346.433 190.409L336.856 182.131L325.912 174.312L312.232 164.653L291.593 151.628L277.5 142.5L258.5 131L241.552 139.818L227.871 147.177L212.103 155.854L201.535 161.805L186.565 171.873L176.439 179.653L164.551 190.18L160.268 193.663C154.273 198.538 148.664 203.869 143.491 209.608L142.143 211.104L134.391 224.902L125.727 243.759L121.166 258.936L117.519 275.493L114.782 296.188V456H88V292.232L89.7764 273.318L92.6475 258.096L98.3887 241.026L107.656 219.949L115.612 206.799L130.444 187.976L146.233 173.675L157.716 163.645L173.666 150.853L191.678 139.381L215.841 123.779L257.575 99L282.616 115.52Z" fill="#6BC4D8"/>
<path d="M156.914 291.007C153.691 296.866 151.274 302.652 149.663 308.365C148.052 313.932 147.246 318.839 147.246 323.087C147.246 329.679 151.421 335.025 159.771 339.127C168.267 343.229 179.692 346.231 194.048 348.136C208.55 349.894 224.663 350.772 242.388 350.772C256.011 350.772 270.806 350.04 286.772 348.575C302.886 347.11 317.9 344.767 331.816 341.544C345.732 338.175 356.353 333.78 363.677 328.36L361.699 332.096C361.699 325.65 357.891 320.23 350.273 315.836C342.803 311.295 335.112 307.56 327.202 304.63L350.054 245.084C358.11 252.848 364.409 261.93 368.95 272.33C373.491 282.584 375.762 296.061 375.762 312.76C375.762 317.74 375.396 323.673 374.663 330.558C374.077 337.296 373.198 343.961 372.026 350.553C370.854 357.145 369.463 362.491 367.852 366.593C364.043 376.407 355.181 384.757 341.265 391.642C327.349 398.38 310.43 403.507 290.508 407.022C270.732 410.538 250.005 412.296 228.325 412.296C208.696 412.296 191.338 410.172 176.25 405.924C161.309 401.676 149.663 394.791 141.313 385.27C132.964 375.748 128.789 363.15 128.789 347.477C128.789 340.885 130.034 333.854 132.524 326.383C135.015 318.912 138.164 311.881 141.973 305.289C145.781 298.551 149.736 293.277 153.838 289.469L156.914 291.007ZM234.697 246.622C245.244 253.507 253.887 262.149 260.625 272.55L234.697 298.478C227.812 288.517 219.17 279.874 208.77 272.55L234.697 246.622ZM276.006 246.622C286.553 253.507 295.195 262.149 301.934 272.55L276.006 298.478C269.121 288.517 260.479 279.874 250.078 272.55L276.006 246.622Z" fill="#C8963E"/>
</g>
<defs>
<clipPath id="clip0_9_335">
<rect width="512" height="512" rx="115" fill="white"/>
</clipPath>
</defs>
</svg>
