<svg width="512" height="512" viewBox="0 0 512 512" fill="none" xmlns="http://www.w3.org/2000/svg">
<rect width="512" height="512" rx="115" fill="#FDF9EE"/>
<path d="M274.996 35.8242L285.864 41.2637L300.622 49.8398L315.265 58.1455L327.816 65.6094L349.781 78.4795L370.569 92.418L390.704 106.793L410.818 122.537L425.274 135.75L434.502 146.432L441.301 155.184L448.622 166.509L455.421 178.349L461.173 189.675L466.402 202.731L470.451 213.712L473.316 224.637L477.136 240.031L478.431 251.449L480 266.894V462H380.025V313.319L377.338 288.283L373.157 270.111L369.674 257.777L366.934 248.764L362.976 238.521L359.018 229.918L351.406 218.446L345.926 211.481L341.055 205.336L335.879 198.78L328.572 190.177L315.785 179.524L306.651 170.921L295.082 162.82L284.73 154.124L272.248 144.291L257.634 132L246.369 141.014L235.104 148.798L222.317 158.221L212.271 165.186L203.745 171.74L195.83 177.477L189.132 183.622L181.712 190.146L173.713 199.418L166.944 208.269L160.483 218.383L152.484 234.397L145.101 250.833L139.994 264.303L137.409 276.963L136.179 285.812L134.948 298.034L134.025 309.413V462H36V270.058L37.0459 257.627L38.0918 248.876L40.707 237.035L44.3672 223.136L48.5508 208.722L54.3037 193.278L55.1797 191.223C59.1182 181.978 63.9762 173.152 69.6797 164.878L71.0391 162.905L82.5439 148.491L94.5723 135.106L109.738 119.663L124.904 106.793L140.07 95.4678L155.236 86.2012L168.311 78.4795L182.431 70.2422L209.625 55.3135L235.251 41.2637L258.024 27L274.996 35.8242Z" fill="#1B4D5C"/>
</svg>
