<svg width="512" height="512" viewBox="0 0 512 512" fill="none" xmlns="http://www.w3.org/2000/svg">
<rect width="512" height="512" rx="115" fill="#FDF9EE"/>
<path d="M269.941 36.6826L280.467 42.0342L294.759 50.4727L308.939 58.6445L321.096 65.9883L342.367 78.6514L362.5 92.3652L382 106.509L401.48 122L415.48 135L424.417 145.51L431.001 154.121L438.092 165.264L444.676 176.914L450.247 188.057L455.312 200.904L459.364 209.837L461.896 219.967L464.936 231.616L466.961 248.838L468.48 264.033V456H448.149V279.001L444.268 239.852L438.571 219.548L431.5 200.5L426 188.5L421.5 180L416.5 172L411 163.5L406 157L398 148L390 141L377.787 131.098L361.175 117.823L344.562 106.59L326.439 95.3574L301.772 81.5713L265.527 60.127L254.955 54L242.873 60.127L225.254 70.3389L205.621 81.5713L189.009 90.8438L174.41 99.4414L162.831 106.59L152.26 114.249L140.178 123.95L127.09 135.183L116.015 145.905L105.442 158.159L92.3545 177.561L80.2725 197.474L71.917 213.792L67.6875 229.13L65.6738 239.852L63.6602 254.659L62.1494 268.444V456H38.4805V267.146L39.4932 254.916L40.5068 246.306L43.0391 234.655L46.584 220.979L50.6357 206.798L56.207 191.603L56.9971 189.718C60.8502 180.529 65.6096 171.747 71.2041 163.502L72.4141 161.719L83.5566 147.536L95.2061 134.367L109.894 119.172L124.582 106.509L139.27 95.3652L153.957 86.248L166.619 78.6514L180.294 70.5469L206.631 55.8584L231.448 42.0342L253.504 28L269.941 36.6826Z" fill="#1B4D5C"/>
<path d="M277.84 90.5996L296.356 99.5586L312.856 107.736L330.356 119.328L347.729 129.912L360.856 141.504L376.356 154.608L382.5 161L390.5 169.5L395.5 175.5L399.5 181.5L403.5 188L408.5 197L413.856 207.528L419.356 221.671L423.856 233.232L426.856 251.88L430 287V456H408.274V268L404 240.288L398 223.656L390 202.992L378.356 188.376L367.856 176.784L356.356 165.192L345.856 156.12L333.856 147.552L318.856 136.968L296.225 122.693L279.4 114.205L256.356 101.184L241.356 109.752L226.356 117.816L206.856 128.4L195.856 133.17L179.356 143.514L168.356 151.584L154.356 163.176L142.356 176.784L132.356 187.872L123.856 202.992L114.356 223.656L109.356 240.288L105.356 258.432L102.356 281.112V456H82V277.08L83.8564 256.416L86.8564 239.784L92.8564 221.136L102.542 198.108L110.856 183.741L126.356 163.176L142.856 147.552L154.856 136.594L173.356 124.872L191.856 113.28L216.274 99.5586L256.019 78L277.84 90.5996Z" fill="#2A6F7F"/>
<path d="M277.669 135.684L290.868 142.985L307.307 153.135L323.744 163.431L341.178 175.602L350.393 183.962L359.607 193.335L368.574 204.976L375.049 217.122L381.026 229.774L383.019 234.835L384.514 239.391L386.008 244.451L387.004 250.524L388 259.634V456H368.67V273.097L366.921 260.814L364.423 249.6L360.926 238.385L352.433 219.16L344.938 209.015L334.447 197.8L326.453 191.061L317.461 183.381L302.972 173.769L285.486 164.034L272.996 156.146L256.009 146L243.52 152.942L225.533 164.034L213.543 171.633L204.051 178.041L192.56 186.052L181.568 194.596L174.074 203.674L167.08 212.752L159.586 223.967L153.091 235.715L147.596 249.6L144.848 266.824V456H124.5V259.634L128.983 244.451L131.167 237.796C134.352 228.088 138.52 218.73 143.607 209.869L146.417 204.976L155.383 193.613L167.836 180.177L178.296 170.055L187.76 163.431L203.699 153.135L221.632 142.985L256.001 124L277.669 135.684Z" fill="#C8963E"/>
<path d="M186.66 311.654C182.005 319.906 179.678 327.259 179.678 333.712C179.678 340.483 182.693 345.879 188.723 349.899C194.859 353.813 203.111 356.617 213.479 358.31C223.953 360.002 235.59 360.849 248.391 360.849C258.23 360.849 268.915 360.32 280.447 359.262C292.084 358.204 302.928 356.511 312.979 354.184C323.029 351.75 330.699 348.576 335.989 344.662L334.561 347.36C334.561 341.753 333.079 336.833 330.117 332.602C327.155 328.37 323.135 324.667 318.057 321.493L329.8 290.39C334.984 294.198 338.739 299.276 341.067 305.624C343.5 311.972 344.717 319.219 344.717 327.365C344.717 332.76 344.188 338.526 343.13 344.662C342.178 350.692 340.802 355.929 339.004 360.373C336.253 367.461 329.853 373.491 319.802 378.463C309.752 383.33 297.533 387.033 283.145 389.572C268.862 392.111 253.892 393.38 238.235 393.38C224.799 393.38 212.633 391.793 201.736 388.62C190.945 385.446 182.323 380.579 175.869 374.02C169.521 367.461 166.348 359.103 166.348 348.947C166.348 341.859 168.252 334.717 172.061 327.523C175.975 320.329 180.101 314.669 184.438 310.543L186.66 311.654ZM242.202 280.075C249.185 284.941 254.897 290.654 259.341 297.213L242.202 314.193C239.98 310.914 237.441 307.899 234.585 305.148C231.729 302.292 228.608 299.647 225.222 297.213L242.202 280.075ZM273.306 280.075C280.288 284.941 286.001 290.654 290.444 297.213L273.306 314.193C271.084 310.914 268.545 307.899 265.688 305.148C262.832 302.292 259.711 299.647 256.326 297.213L273.306 280.075Z" fill="#C8963E"/>
</svg>
